<svg width="24" height="25" viewBox="0 0 24 25" fill="none" xmlns="http://www.w3.org/2000/svg">
<path d="M18.54 4.20114L13.04 2.14114C12.47 1.93114 11.54 1.93114 10.97 2.14114L5.47 4.20114C4.41 4.60114 3.55 5.84114 3.55 6.97114V15.0711C3.55 15.8811 4.08 16.9511 4.73 17.4311L10.23 21.5411C11.2 22.2711 12.79 22.2711 13.76 21.5411L19.26 17.4311C19.91 16.9411 20.44 15.8811 20.44 15.0711V6.97114C20.45 5.84114 19.59 4.60114 18.54 4.20114ZM15.48 9.80114L11.18 14.1011C11.03 14.2511 10.84 14.3211 10.65 14.3211C10.46 14.3211 10.27 14.2511 10.12 14.1011L8.52 12.4811C8.23 12.1911 8.23 11.7111 8.52 11.4211C8.81 11.1311 9.29 11.1311 9.58 11.4211L10.66 12.5011L14.43 8.73114C14.72 8.44114 15.2 8.44114 15.49 8.73114C15.78 9.02114 15.78 9.51114 15.48 9.80114Z" fill="#292D32"/>
</svg>
